<svg xmlns="http://www.w3.org/2000/svg" id="export" class="canvas" preserveAspectRatio="xMidYMid meet" style="" width="101" height="744"><rect id="background" fill="#fff" pointer-events="all" width="101" height="744"/><g id="origin" transform="translate(4.565747079034728, 4.567001142381444) scale(1)"><g id="clusters" class="clusters"/><g id="edge-paths" class="edge-paths" style="pointer-events: none;"><defs><marker id="arrowhead" viewBox="0 0 10 10" refX="9" refY="5" markerUnits="strokeWidth" markerWidth="8" markerHeight="6" orient="auto" style="fill: rgb(0, 0, 0);"><path d="M 0 0 L 10 5 L 0 10 L 4 5 z" style="stroke-width: 1px;"/></marker><marker id="arrowhead-select" viewBox="0 0 10 10" refX="9" refY="5" markerUnits="strokeWidth" markerWidth="8" markerHeight="6" orient="auto" style="fill: rgba(220, 0, 0, 0.9);"><path d="M 0 0 L 10 5 L 0 10 L 4 5 z" style="stroke-width: 1px;"/></marker><marker id="arrowhead-hover" viewBox="0 0 10 10" refX="9" refY="5" markerUnits="strokeWidth" markerWidth="8" markerHeight="6" orient="auto" style="fill: rgba(220, 0, 0, 0.9);"><path d="M 0 0 L 10 5 L 0 10 L 4 5 z" style="stroke-width: 1px;"/></marker></defs><path id="edge-serving_default_keras_tensor:0&#xA;0" class="edge-path" d="M45.698117123583245,20.399802960802873L45.698117123583245,22.06646962746954C45.698117123583245,23.733136294136205,45.698117123583245,27.06646962746954,45.698117123583245,32.172908950011966C45.698117123583245,37.27934827255439,45.698117123583245,44.1588935843059,45.698117123583245,51.038438896057414C45.698117123583245,57.91798420780893,45.698117123583245,64.79752951956044,45.698117123583245,69.90396884210287C45.698117123583245,75.01040816464528,45.698117123583245,78.34374149797863,45.698117123583245,80.0104081646453L45.698117123583245,81.67707483131196" style="stroke: rgb(0, 0, 0); stroke-width: 1px; fill: none; marker-end: url(&quot;#arrowhead&quot;);"/><path id="edge-sequential_1/dense_1/MatMul;sequential_1/dense_1/Relu;sequential_1/dense_1/BiasAdd&#xA;11" class="edge-path" d="M45.698117123583245,158.63842509481904L45.698117123583245,162.07819775069478C45.698117123583245,165.51797040657053,45.698117123583245,172.39751571832207,45.698117123583245,179.27706103007355C45.698117123583245,186.15660634182507,45.698117123583245,193.03615165357658,45.698117123583245,196.47592430945235L45.698117123583245,199.9156969653281" style="stroke: rgb(0, 0, 0); stroke-width: 1px; fill: none; marker-end: url(&quot;#arrowhead&quot;);"/><path id="edge-sequential_1/batch_normalization_1/batchnorm/mul_1;sequential_1/batch_normalization_1/batchnorm/add_1;sequential_1/dense_1_2/MatMul;sequential_1/dense_1_2/Relu;sequential_1/dense_1_2/BiasAdd&#xA;12" class="edge-path" d="M45.698117123583245,276.8770472288352L45.698117123583245,280.3168198847109C45.698117123583245,283.7565925405867,45.698117123583245,290.6361378523382,45.698117123583245,297.51568316408975C45.698117123583245,304.3952284758413,45.698117123583245,311.2747737875928,45.698117123583245,314.7145464434685L45.698117123583245,318.15431909934426" style="stroke: rgb(0, 0, 0); stroke-width: 1px; fill: none; marker-end: url(&quot;#arrowhead&quot;);"/><path id="edge-sequential_1/dense_2_1/MatMul;sequential_1/dense_2_1/Relu;sequential_1/dense_2_1/BiasAdd&#xA;13" class="edge-path" d="M45.698117123583245,395.1156693628513L45.698117123583245,398.5554420187271C45.698117123583245,401.9952146746029,45.698117123583245,408.8747599863544,45.698117123583245,415.7543052981059C45.698117123583245,422.63385060985746,45.698117123583245,429.51339592160895,45.698117123583245,432.95316857748463L45.698117123583245,436.39294123336043" style="stroke: rgb(0, 0, 0); stroke-width: 1px; fill: none; marker-end: url(&quot;#arrowhead&quot;);"/><path id="edge-sequential_1/dense_3_1/MatMul;sequential_1/dense_3_1/Relu;sequential_1/dense_3_1/BiasAdd&#xA;14" class="edge-path" d="M45.698117123583245,513.3542914968675L45.698117123583245,516.7940641527433C45.698117123583245,520.233836808619,45.698117123583245,527.1133821203706,45.698117123583245,533.9929274321221C45.698117123583245,540.8724727438736,45.698117123583245,547.7520180556252,45.698117123583245,551.1917907115009L45.698117123583245,554.6315633673767" style="stroke: rgb(0, 0, 0); stroke-width: 1px; fill: none; marker-end: url(&quot;#arrowhead&quot;);"/><path id="edge-sequential_1/dense_4_1/MatMul;sequential_1/dense_4_1/BiasAdd&#xA;15" class="edge-path" d="M45.698117123583245,611.1931106700808L45.698117123583245,614.6328833259566C45.698117123583245,618.0726559818323,45.698117123583245,624.9522012935839,45.698117123583245,631.8317466053354C45.698117123583245,638.7112919170869,45.698117123583245,645.5908372288385,45.698117123583245,649.0306098847142L45.698117123583245,652.47038254059" style="stroke: rgb(0, 0, 0); stroke-width: 1px; fill: none; marker-end: url(&quot;#arrowhead&quot;);"/><path id="edge-StatefulPartitionedCall_1:0&#xA;16" class="edge-path" d="M45.698117123583245,672.8701855013928L45.698117123583245,676.3099581572686C45.698117123583245,679.7497308131443,45.698117123583245,686.6292761248959,45.698117123583245,693.5088214366474C45.698117123583245,700.3883667483989,45.698117123583245,707.2679120601505,45.698117123583245,710.7076847160262L45.698117123583245,714.147457371902" style="stroke: rgb(0, 0, 0); stroke-width: 1px; fill: none; marker-end: url(&quot;#arrowhead&quot;);"/></g><g id="edge-labels" class="edge-labels"><text style="opacity: 1; font-family: -apple-system, BlinkMacSystemFont, &quot;Segoe WPC&quot;, &quot;Segoe UI&quot;, &quot;Ubuntu&quot;, &quot;Droid Sans&quot;, sans-serif, &quot;PingFang SC&quot;; font-size: 10px;" class="edge-label" id="edge-label-edge-serving_default_keras_tensor:0&#xA;0" transform="translate(50.698117123583245,45.39980296080287)"><tspan xml:space="preserve" dy="1em" x="1">?×3</tspan></text><text style="opacity: 1; font-family: -apple-system, BlinkMacSystemFont, &quot;Segoe WPC&quot;, &quot;Segoe UI&quot;, &quot;Ubuntu&quot;, &quot;Droid Sans&quot;, sans-serif, &quot;PingFang SC&quot;; font-size: 10px;" class="edge-label" id="edge-label-edge-sequential_1/dense_1/MatMul;sequential_1/dense_1/Relu;sequential_1/dense_1/BiasAdd&#xA;11" transform="translate(50.698117123583245,173.638425094819)"><tspan xml:space="preserve" dy="1em" x="1">?×64</tspan></text><text style="opacity: 1; font-family: -apple-system, BlinkMacSystemFont, &quot;Segoe WPC&quot;, &quot;Segoe UI&quot;, &quot;Ubuntu&quot;, &quot;Droid Sans&quot;, sans-serif, &quot;PingFang SC&quot;; font-size: 10px;" class="edge-label" id="edge-label-edge-sequential_1/batch_normalization_1/batchnorm/mul_1;sequential_1/batch_normalization_1/batchnorm/add_1;sequential_1/dense_1_2/MatMul;sequential_1/dense_1_2/Relu;sequential_1/dense_1_2/BiasAdd&#xA;12" transform="translate(50.698117123583245,291.8770472288352)"><tspan xml:space="preserve" dy="1em" x="1">?×64</tspan></text><text style="opacity: 1; font-family: -apple-system, BlinkMacSystemFont, &quot;Segoe WPC&quot;, &quot;Segoe UI&quot;, &quot;Ubuntu&quot;, &quot;Droid Sans&quot;, sans-serif, &quot;PingFang SC&quot;; font-size: 10px;" class="edge-label" id="edge-label-edge-sequential_1/dense_2_1/MatMul;sequential_1/dense_2_1/Relu;sequential_1/dense_2_1/BiasAdd&#xA;13" transform="translate(50.698117123583245,410.11566936285135)"><tspan xml:space="preserve" dy="1em" x="1">?×32</tspan></text><text style="opacity: 1; font-family: -apple-system, BlinkMacSystemFont, &quot;Segoe WPC&quot;, &quot;Segoe UI&quot;, &quot;Ubuntu&quot;, &quot;Droid Sans&quot;, sans-serif, &quot;PingFang SC&quot;; font-size: 10px;" class="edge-label" id="edge-label-edge-sequential_1/dense_3_1/MatMul;sequential_1/dense_3_1/Relu;sequential_1/dense_3_1/BiasAdd&#xA;14" transform="translate(50.698117123583245,528.3542914968675)"><tspan xml:space="preserve" dy="1em" x="1">?×32</tspan></text><text style="opacity: 1; font-family: -apple-system, BlinkMacSystemFont, &quot;Segoe WPC&quot;, &quot;Segoe UI&quot;, &quot;Ubuntu&quot;, &quot;Droid Sans&quot;, sans-serif, &quot;PingFang SC&quot;; font-size: 10px;" class="edge-label" id="edge-label-edge-sequential_1/dense_4_1/MatMul;sequential_1/dense_4_1/BiasAdd&#xA;15" transform="translate(50.698117123583245,626.1931106700808)"><tspan xml:space="preserve" dy="1em" x="1">?×2</tspan></text><text style="opacity: 1; font-family: -apple-system, BlinkMacSystemFont, &quot;Segoe WPC&quot;, &quot;Segoe UI&quot;, &quot;Ubuntu&quot;, &quot;Droid Sans&quot;, sans-serif, &quot;PingFang SC&quot;; font-size: 10px;" class="edge-label" id="edge-label-edge-StatefulPartitionedCall_1:0&#xA;16" transform="translate(50.698117123583245,687.8701855013928)"><tspan xml:space="preserve" dy="1em" x="1">?×2</tspan></text></g><g id="nodes" class="nodes"><g id="input-name-keras_tensor" class="node graph-input" style="" transform="translate(6.535536823855139,0)"><g class="node-item graph-item-input" transform="translate(0,0)"><path d="M5,0h68.32516059945621a5,5 0 0 1 5,5v10.399802960802873a5,5 0 0 1 -5,5h-68.32516059945621a5,5 0 0 1 -5,-5v-10.399802960802873a5,5 0 0 1 5,-5z" style="stroke: rgb(0, 0, 0); fill: rgb(238, 238, 238); stroke-width: 0px;"/><text x="6" y="14.284993666230001" style="font-family: -apple-system, BlinkMacSystemFont, &quot;Segoe WPC&quot;, &quot;Segoe UI&quot;, &quot;Ubuntu&quot;, &quot;Droid Sans&quot;, sans-serif, &quot;PingFang SC&quot;; font-size: 11px; text-rendering: geometricprecision; user-select: none;">keras_tensor</text><title>int8[-1,3]</title></g><path class="node node-border" d="M5,0h68.32516059945621a5,5 0 0 1 5,5v10.399802960802873a5,5 0 0 1 -5,5h-68.32516059945621a5,5 0 0 1 -5,-5v-10.399802960802873a5,5 0 0 1 5,-5z" style="stroke: rgb(51, 51, 51); fill: none; stroke-width: 1px;"/></g><g id="node-id-0" class="node graph-node" style="" transform="translate(0,81.67707483131196)"><g class="node-item node-item-type node-item-type-layer" transform="translate(0,0)"><path d="M5,0h81.39623424716649a5,5 0 0 1 5,5v15.399802960802873a0,0 0 0 1 0,0h-91.39623424716649a0,0 0 0 1 0,0v-15.399802960802873a5,5 0 0 1 5,-5z" style="stroke: rgb(0, 0, 0); fill: rgb(51, 85, 136); stroke-width: 0px;"/><text x="6" y="14.284993666230001" style="font-family: -apple-system, BlinkMacSystemFont, &quot;Segoe WPC&quot;, &quot;Segoe UI&quot;, &quot;Ubuntu&quot;, &quot;Droid Sans&quot;, sans-serif, &quot;PingFang SC&quot;; font-size: 11px; text-rendering: geometricprecision; user-select: none; fill: rgb(255, 255, 255);">FullyConnected</text><title>0</title></g><g class="node-argument-list" transform="translate(0,20.399802960802873)"><path d="M0,0h91.39623424716649a0,0 0 0 1 0,0v36.161744341901326a0,0 0 0 1 0,0h-91.39623424716649a0,0 0 0 1 0,0v-36.161744341901326a0,0 0 0 1 0,0z" style="stroke: rgb(0, 0, 0); fill: rgb(255, 255, 255); stroke-width: 0px;"/><g class="node-argument"><rect rx="3" ry="3" x="3" y="3" width="85.39623424716649" height="15.080872170950663" style="fill: transparent;"/><text xml:space="preserve" x="6" y="14.478817305750287" style="font-family: -apple-system, BlinkMacSystemFont, &quot;Segoe WPC&quot;, &quot;Segoe UI&quot;, &quot;Ubuntu&quot;, &quot;Droid Sans&quot;, sans-serif, &quot;PingFang SC&quot;; font-size: 9px; font-weight: normal; text-rendering: geometricprecision; user-select: none;"><title>int8[64,3]</title><tspan style="font-weight: bold;">weights</tspan><tspan>〈64×3〉</tspan></text></g><g class="node-argument"><rect rx="3" ry="3" x="3" y="18.080872170950663" width="85.39623424716649" height="15.080872170950663" style="fill: transparent;"/><text xml:space="preserve" x="6" y="29.55968947670095" style="font-family: -apple-system, BlinkMacSystemFont, &quot;Segoe WPC&quot;, &quot;Segoe UI&quot;, &quot;Ubuntu&quot;, &quot;Droid Sans&quot;, sans-serif, &quot;PingFang SC&quot;; font-size: 9px; font-weight: normal; text-rendering: geometricprecision; user-select: none;"><title>int32[64]</title><tspan style="font-weight: bold;">bias</tspan><tspan>〈64〉</tspan></text></g><line class="node" x1="0" x2="91.39623424716649" y1="0" y2="0" style="stroke: rgb(51, 51, 51); fill: none; stroke-width: 1px;"/></g><g class="node-item node-item-type node-item-type-activation" transform="translate(0,56.5615473027042)"><path d="M0,0h91.39623424716649a0,0 0 0 1 0,0v15.399802960802873a5,5 0 0 1 -5,5h-81.39623424716649a5,5 0 0 1 -5,-5v-15.399802960802873a0,0 0 0 1 0,0z" style="stroke: rgb(0, 0, 0); fill: rgb(112, 41, 33); stroke-width: 0px;"/><text x="6" y="14.284993666230001" style="font-family: -apple-system, BlinkMacSystemFont, &quot;Segoe WPC&quot;, &quot;Segoe UI&quot;, &quot;Ubuntu&quot;, &quot;Droid Sans&quot;, sans-serif, &quot;PingFang SC&quot;; font-size: 11px; text-rendering: geometricprecision; user-select: none; fill: rgb(255, 255, 255);">Relu</text></g><line class="node" x1="0" x2="91.39623424716649" y1="56.5615473027042" y2="56.5615473027042" style="stroke: rgb(51, 51, 51); fill: none; stroke-width: 1px;"/><path class="node node-border" d="M5,0h81.39623424716649a5,5 0 0 1 5,5v66.96135026350707a5,5 0 0 1 -5,5h-81.39623424716649a5,5 0 0 1 -5,-5v-66.96135026350707a5,5 0 0 1 5,-5z" style="stroke: rgb(51, 51, 51); fill: none; stroke-width: 1px;"/></g><g id="node-id-2" class="node graph-node" style="" transform="translate(0,199.9156969653281)"><g class="node-item node-item-type node-item-type-layer" transform="translate(0,0)"><path d="M5,0h81.39623424716649a5,5 0 0 1 5,5v15.399802960802873a0,0 0 0 1 0,0h-91.39623424716649a0,0 0 0 1 0,0v-15.399802960802873a5,5 0 0 1 5,-5z" style="stroke: rgb(0, 0, 0); fill: rgb(51, 85, 136); stroke-width: 0px;"/><text x="6" y="14.284993666230001" style="font-family: -apple-system, BlinkMacSystemFont, &quot;Segoe WPC&quot;, &quot;Segoe UI&quot;, &quot;Ubuntu&quot;, &quot;Droid Sans&quot;, sans-serif, &quot;PingFang SC&quot;; font-size: 11px; text-rendering: geometricprecision; user-select: none; fill: rgb(255, 255, 255);">FullyConnected</text><title>1</title></g><g class="node-argument-list" transform="translate(0,20.399802960802873)"><path d="M0,0h91.39623424716649a0,0 0 0 1 0,0v36.161744341901326a0,0 0 0 1 0,0h-91.39623424716649a0,0 0 0 1 0,0v-36.161744341901326a0,0 0 0 1 0,0z" style="stroke: rgb(0, 0, 0); fill: rgb(255, 255, 255); stroke-width: 0px;"/><g class="node-argument"><rect rx="3" ry="3" x="3" y="3" width="85.39623424716649" height="15.080872170950663" style="fill: transparent;"/><text xml:space="preserve" x="6" y="14.478817305750287" style="font-family: -apple-system, BlinkMacSystemFont, &quot;Segoe WPC&quot;, &quot;Segoe UI&quot;, &quot;Ubuntu&quot;, &quot;Droid Sans&quot;, sans-serif, &quot;PingFang SC&quot;; font-size: 9px; font-weight: normal; text-rendering: geometricprecision; user-select: none;"><title>int8[64,64]</title><tspan style="font-weight: bold;">weights</tspan><tspan>〈64×64〉</tspan></text></g><g class="node-argument"><rect rx="3" ry="3" x="3" y="18.080872170950663" width="85.39623424716649" height="15.080872170950663" style="fill: transparent;"/><text xml:space="preserve" x="6" y="29.55968947670095" style="font-family: -apple-system, BlinkMacSystemFont, &quot;Segoe WPC&quot;, &quot;Segoe UI&quot;, &quot;Ubuntu&quot;, &quot;Droid Sans&quot;, sans-serif, &quot;PingFang SC&quot;; font-size: 9px; font-weight: normal; text-rendering: geometricprecision; user-select: none;"><title>int32[64]</title><tspan style="font-weight: bold;">bias</tspan><tspan>〈64〉</tspan></text></g><line class="node" x1="0" x2="91.39623424716649" y1="0" y2="0" style="stroke: rgb(51, 51, 51); fill: none; stroke-width: 1px;"/></g><g class="node-item node-item-type node-item-type-activation" transform="translate(0,56.5615473027042)"><path d="M0,0h91.39623424716649a0,0 0 0 1 0,0v15.399802960802873a5,5 0 0 1 -5,5h-81.39623424716649a5,5 0 0 1 -5,-5v-15.399802960802873a0,0 0 0 1 0,0z" style="stroke: rgb(0, 0, 0); fill: rgb(112, 41, 33); stroke-width: 0px;"/><text x="6" y="14.284993666230001" style="font-family: -apple-system, BlinkMacSystemFont, &quot;Segoe WPC&quot;, &quot;Segoe UI&quot;, &quot;Ubuntu&quot;, &quot;Droid Sans&quot;, sans-serif, &quot;PingFang SC&quot;; font-size: 11px; text-rendering: geometricprecision; user-select: none; fill: rgb(255, 255, 255);">Relu</text></g><line class="node" x1="0" x2="91.39623424716649" y1="56.5615473027042" y2="56.5615473027042" style="stroke: rgb(51, 51, 51); fill: none; stroke-width: 1px;"/><path class="node node-border" d="M5,0h81.39623424716649a5,5 0 0 1 5,5v66.96135026350707a5,5 0 0 1 -5,5h-81.39623424716649a5,5 0 0 1 -5,-5v-66.96135026350707a5,5 0 0 1 5,-5z" style="stroke: rgb(51, 51, 51); fill: none; stroke-width: 1px;"/></g><g id="node-id-4" class="node graph-node" style="" transform="translate(0,318.15431909934426)"><g class="node-item node-item-type node-item-type-layer" transform="translate(0,0)"><path d="M5,0h81.39623424716649a5,5 0 0 1 5,5v15.399802960802873a0,0 0 0 1 0,0h-91.39623424716649a0,0 0 0 1 0,0v-15.399802960802873a5,5 0 0 1 5,-5z" style="stroke: rgb(0, 0, 0); fill: rgb(51, 85, 136); stroke-width: 0px;"/><text x="6" y="14.284993666230001" style="font-family: -apple-system, BlinkMacSystemFont, &quot;Segoe WPC&quot;, &quot;Segoe UI&quot;, &quot;Ubuntu&quot;, &quot;Droid Sans&quot;, sans-serif, &quot;PingFang SC&quot;; font-size: 11px; text-rendering: geometricprecision; user-select: none; fill: rgb(255, 255, 255);">FullyConnected</text><title>2</title></g><g class="node-argument-list" transform="translate(0,20.399802960802873)"><path d="M0,0h91.39623424716649a0,0 0 0 1 0,0v36.161744341901326a0,0 0 0 1 0,0h-91.39623424716649a0,0 0 0 1 0,0v-36.161744341901326a0,0 0 0 1 0,0z" style="stroke: rgb(0, 0, 0); fill: rgb(255, 255, 255); stroke-width: 0px;"/><g class="node-argument"><rect rx="3" ry="3" x="3" y="3" width="85.39623424716649" height="15.080872170950663" style="fill: transparent;"/><text xml:space="preserve" x="6" y="14.478817305750287" style="font-family: -apple-system, BlinkMacSystemFont, &quot;Segoe WPC&quot;, &quot;Segoe UI&quot;, &quot;Ubuntu&quot;, &quot;Droid Sans&quot;, sans-serif, &quot;PingFang SC&quot;; font-size: 9px; font-weight: normal; text-rendering: geometricprecision; user-select: none;"><title>int8[32,64]</title><tspan style="font-weight: bold;">weights</tspan><tspan>〈32×64〉</tspan></text></g><g class="node-argument"><rect rx="3" ry="3" x="3" y="18.080872170950663" width="85.39623424716649" height="15.080872170950663" style="fill: transparent;"/><text xml:space="preserve" x="6" y="29.55968947670095" style="font-family: -apple-system, BlinkMacSystemFont, &quot;Segoe WPC&quot;, &quot;Segoe UI&quot;, &quot;Ubuntu&quot;, &quot;Droid Sans&quot;, sans-serif, &quot;PingFang SC&quot;; font-size: 9px; font-weight: normal; text-rendering: geometricprecision; user-select: none;"><title>int32[32]</title><tspan style="font-weight: bold;">bias</tspan><tspan>〈32〉</tspan></text></g><line class="node" x1="0" x2="91.39623424716649" y1="0" y2="0" style="stroke: rgb(51, 51, 51); fill: none; stroke-width: 1px;"/></g><g class="node-item node-item-type node-item-type-activation" transform="translate(0,56.5615473027042)"><path d="M0,0h91.39623424716649a0,0 0 0 1 0,0v15.399802960802873a5,5 0 0 1 -5,5h-81.39623424716649a5,5 0 0 1 -5,-5v-15.399802960802873a0,0 0 0 1 0,0z" style="stroke: rgb(0, 0, 0); fill: rgb(112, 41, 33); stroke-width: 0px;"/><text x="6" y="14.284993666230001" style="font-family: -apple-system, BlinkMacSystemFont, &quot;Segoe WPC&quot;, &quot;Segoe UI&quot;, &quot;Ubuntu&quot;, &quot;Droid Sans&quot;, sans-serif, &quot;PingFang SC&quot;; font-size: 11px; text-rendering: geometricprecision; user-select: none; fill: rgb(255, 255, 255);">Relu</text></g><line class="node" x1="0" x2="91.39623424716649" y1="56.5615473027042" y2="56.5615473027042" style="stroke: rgb(51, 51, 51); fill: none; stroke-width: 1px;"/><path class="node node-border" d="M5,0h81.39623424716649a5,5 0 0 1 5,5v66.96135026350707a5,5 0 0 1 -5,5h-81.39623424716649a5,5 0 0 1 -5,-5v-66.96135026350707a5,5 0 0 1 5,-5z" style="stroke: rgb(51, 51, 51); fill: none; stroke-width: 1px;"/></g><g id="node-id-6" class="node graph-node" style="" transform="translate(0,436.39294123336043)"><g class="node-item node-item-type node-item-type-layer" transform="translate(0,0)"><path d="M5,0h81.39623424716649a5,5 0 0 1 5,5v15.399802960802873a0,0 0 0 1 0,0h-91.39623424716649a0,0 0 0 1 0,0v-15.399802960802873a5,5 0 0 1 5,-5z" style="stroke: rgb(0, 0, 0); fill: rgb(51, 85, 136); stroke-width: 0px;"/><text x="6" y="14.284993666230001" style="font-family: -apple-system, BlinkMacSystemFont, &quot;Segoe WPC&quot;, &quot;Segoe UI&quot;, &quot;Ubuntu&quot;, &quot;Droid Sans&quot;, sans-serif, &quot;PingFang SC&quot;; font-size: 11px; text-rendering: geometricprecision; user-select: none; fill: rgb(255, 255, 255);">FullyConnected</text><title>3</title></g><g class="node-argument-list" transform="translate(0,20.399802960802873)"><path d="M0,0h91.39623424716649a0,0 0 0 1 0,0v36.161744341901326a0,0 0 0 1 0,0h-91.39623424716649a0,0 0 0 1 0,0v-36.161744341901326a0,0 0 0 1 0,0z" style="stroke: rgb(0, 0, 0); fill: rgb(255, 255, 255); stroke-width: 0px;"/><g class="node-argument"><rect rx="3" ry="3" x="3" y="3" width="85.39623424716649" height="15.080872170950663" style="fill: transparent;"/><text xml:space="preserve" x="6" y="14.478817305750287" style="font-family: -apple-system, BlinkMacSystemFont, &quot;Segoe WPC&quot;, &quot;Segoe UI&quot;, &quot;Ubuntu&quot;, &quot;Droid Sans&quot;, sans-serif, &quot;PingFang SC&quot;; font-size: 9px; font-weight: normal; text-rendering: geometricprecision; user-select: none;"><title>int8[32,32]</title><tspan style="font-weight: bold;">weights</tspan><tspan>〈32×32〉</tspan></text></g><g class="node-argument"><rect rx="3" ry="3" x="3" y="18.080872170950663" width="85.39623424716649" height="15.080872170950663" style="fill: transparent;"/><text xml:space="preserve" x="6" y="29.55968947670095" style="font-family: -apple-system, BlinkMacSystemFont, &quot;Segoe WPC&quot;, &quot;Segoe UI&quot;, &quot;Ubuntu&quot;, &quot;Droid Sans&quot;, sans-serif, &quot;PingFang SC&quot;; font-size: 9px; font-weight: normal; text-rendering: geometricprecision; user-select: none;"><title>int32[32]</title><tspan style="font-weight: bold;">bias</tspan><tspan>〈32〉</tspan></text></g><line class="node" x1="0" x2="91.39623424716649" y1="0" y2="0" style="stroke: rgb(51, 51, 51); fill: none; stroke-width: 1px;"/></g><g class="node-item node-item-type node-item-type-activation" transform="translate(0,56.5615473027042)"><path d="M0,0h91.39623424716649a0,0 0 0 1 0,0v15.399802960802873a5,5 0 0 1 -5,5h-81.39623424716649a5,5 0 0 1 -5,-5v-15.399802960802873a0,0 0 0 1 0,0z" style="stroke: rgb(0, 0, 0); fill: rgb(112, 41, 33); stroke-width: 0px;"/><text x="6" y="14.284993666230001" style="font-family: -apple-system, BlinkMacSystemFont, &quot;Segoe WPC&quot;, &quot;Segoe UI&quot;, &quot;Ubuntu&quot;, &quot;Droid Sans&quot;, sans-serif, &quot;PingFang SC&quot;; font-size: 11px; text-rendering: geometricprecision; user-select: none; fill: rgb(255, 255, 255);">Relu</text></g><line class="node" x1="0" x2="91.39623424716649" y1="56.5615473027042" y2="56.5615473027042" style="stroke: rgb(51, 51, 51); fill: none; stroke-width: 1px;"/><path class="node node-border" d="M5,0h81.39623424716649a5,5 0 0 1 5,5v66.96135026350707a5,5 0 0 1 -5,5h-81.39623424716649a5,5 0 0 1 -5,-5v-66.96135026350707a5,5 0 0 1 5,-5z" style="stroke: rgb(51, 51, 51); fill: none; stroke-width: 1px;"/></g><g id="node-id-8" class="node graph-node" style="" transform="translate(0,554.6315633673767)"><g class="node-item node-item-type node-item-type-layer" transform="translate(0,0)"><path d="M5,0h81.39623424716649a5,5 0 0 1 5,5v15.399802960802873a0,0 0 0 1 0,0h-91.39623424716649a0,0 0 0 1 0,0v-15.399802960802873a5,5 0 0 1 5,-5z" style="stroke: rgb(0, 0, 0); fill: rgb(51, 85, 136); stroke-width: 0px;"/><text x="6" y="14.284993666230001" style="font-family: -apple-system, BlinkMacSystemFont, &quot;Segoe WPC&quot;, &quot;Segoe UI&quot;, &quot;Ubuntu&quot;, &quot;Droid Sans&quot;, sans-serif, &quot;PingFang SC&quot;; font-size: 11px; text-rendering: geometricprecision; user-select: none; fill: rgb(255, 255, 255);">FullyConnected</text><title>4</title></g><g class="node-argument-list" transform="translate(0,20.399802960802873)"><path d="M0,0h91.39623424716649a0,0 0 0 1 0,0v31.161744341901326a5,5 0 0 1 -5,5h-81.39623424716649a5,5 0 0 1 -5,-5v-31.161744341901326a0,0 0 0 1 0,0z" style="stroke: rgb(0, 0, 0); fill: rgb(255, 255, 255); stroke-width: 0px;"/><g class="node-argument"><rect rx="3" ry="3" x="3" y="3" width="85.39623424716649" height="15.080872170950663" style="fill: transparent;"/><text xml:space="preserve" x="6" y="14.478817305750287" style="font-family: -apple-system, BlinkMacSystemFont, &quot;Segoe WPC&quot;, &quot;Segoe UI&quot;, &quot;Ubuntu&quot;, &quot;Droid Sans&quot;, sans-serif, &quot;PingFang SC&quot;; font-size: 9px; font-weight: normal; text-rendering: geometricprecision; user-select: none;"><title>int8[2,32]</title><tspan style="font-weight: bold;">weights</tspan><tspan>〈2×32〉</tspan></text></g><g class="node-argument"><rect rx="3" ry="3" x="3" y="18.080872170950663" width="85.39623424716649" height="15.080872170950663" style="fill: transparent;"/><text xml:space="preserve" x="6" y="29.55968947670095" style="font-family: -apple-system, BlinkMacSystemFont, &quot;Segoe WPC&quot;, &quot;Segoe UI&quot;, &quot;Ubuntu&quot;, &quot;Droid Sans&quot;, sans-serif, &quot;PingFang SC&quot;; font-size: 9px; font-weight: normal; text-rendering: geometricprecision; user-select: none;"><title>int32[2]</title><tspan style="font-weight: bold;">bias</tspan><tspan>〈2〉</tspan></text></g><line class="node" x1="0" x2="91.39623424716649" y1="0" y2="0" style="stroke: rgb(51, 51, 51); fill: none; stroke-width: 1px;"/></g><path class="node node-border" d="M5,0h81.39623424716649a5,5 0 0 1 5,5v46.5615473027042a5,5 0 0 1 -5,5h-81.39623424716649a5,5 0 0 1 -5,-5v-46.5615473027042a5,5 0 0 1 5,-5z" style="stroke: rgb(51, 51, 51); fill: none; stroke-width: 1px;"/></g><g id="node-id-9" class="node graph-node" style="" transform="translate(17.776356324500025,652.47038254059)"><g class="node-item node-item-type node-item-type-activation" transform="translate(0,0)"><path d="M5,0h45.84352159816644a5,5 0 0 1 5,5v10.399802960802873a5,5 0 0 1 -5,5h-45.84352159816644a5,5 0 0 1 -5,-5v-10.399802960802873a5,5 0 0 1 5,-5z" style="stroke: rgb(0, 0, 0); fill: rgb(112, 41, 33); stroke-width: 0px;"/><text x="6" y="14.284993666230001" style="font-family: -apple-system, BlinkMacSystemFont, &quot;Segoe WPC&quot;, &quot;Segoe UI&quot;, &quot;Ubuntu&quot;, &quot;Droid Sans&quot;, sans-serif, &quot;PingFang SC&quot;; font-size: 11px; text-rendering: geometricprecision; user-select: none; fill: rgb(255, 255, 255);">Softmax</text><title>5</title></g><path class="node node-border" d="M5,0h45.84352159816644a5,5 0 0 1 5,5v10.399802960802873a5,5 0 0 1 -5,5h-45.84352159816644a5,5 0 0 1 -5,-5v-10.399802960802873a5,5 0 0 1 5,-5z" style="stroke: rgb(51, 51, 51); fill: none; stroke-width: 1px;"/></g><g class="node" style="" transform="translate(15.67159838165555,714.147457371902)"><g class="node-item graph-item-output" transform="translate(0,0)"><path d="M5,0h50.05303748385539a5,5 0 0 1 5,5v10.399802960802873a5,5 0 0 1 -5,5h-50.05303748385539a5,5 0 0 1 -5,-5v-10.399802960802873a5,5 0 0 1 5,-5z" style="stroke: rgb(0, 0, 0); fill: rgb(238, 238, 238); stroke-width: 0px;"/><text x="6" y="14.284993666230001" style="font-family: -apple-system, BlinkMacSystemFont, &quot;Segoe WPC&quot;, &quot;Segoe UI&quot;, &quot;Ubuntu&quot;, &quot;Droid Sans&quot;, sans-serif, &quot;PingFang SC&quot;; font-size: 11px; text-rendering: geometricprecision; user-select: none;">output_0</text><title>int8[-1,2]</title></g><path class="node node-border" d="M5,0h50.05303748385539a5,5 0 0 1 5,5v10.399802960802873a5,5 0 0 1 -5,5h-50.05303748385539a5,5 0 0 1 -5,-5v-10.399802960802873a5,5 0 0 1 5,-5z" style="stroke: rgb(51, 51, 51); fill: none; stroke-width: 1px;"/></g></g></g></svg>